<svg width="48" height="48" viewBox="0 0 48 48" fill="none" xmlns="http://www.w3.org/2000/svg">
<rect x="6" width="36" height="36" fill="white"/>
<line x1="10" y1="17" x2="38" y2="17" stroke="black" stroke-width="2"/>
<line x1="10" y1="9" x2="38" y2="9" stroke="black" stroke-width="2"/>
<line x1="10" y1="26" x2="38" y2="26" stroke="black" stroke-width="2"/>
<path d="M9.82715 41.293C10.1722 40.7656 10.4928 40.1748 10.7891 39.5205C10.9779 39.0713 11.1048 38.6611 11.1699 38.29C11.7624 38.5049 12.1823 38.7148 12.4297 38.9199C12.4948 38.9688 12.5273 39.0257 12.5273 39.0908C12.5273 39.1755 12.4899 39.2487 12.415 39.3105C12.3109 39.4017 12.1611 39.6247 11.9658 39.9795C11.5101 40.8584 11.1309 41.5192 10.8281 41.9619C11.2839 42.3167 11.7738 42.7692 12.2979 43.3193C12.3369 43.3682 12.3564 43.4154 12.3564 43.4609C12.3564 43.4902 12.3402 43.5326 12.3076 43.5879C12.1742 43.7637 11.9707 44.0013 11.6973 44.3008C11.6615 44.3464 11.6208 44.3691 11.5752 44.3691C11.5329 44.3691 11.4873 44.3398 11.4385 44.2812C11.0251 43.7865 10.5889 43.3454 10.1299 42.958C9.06543 44.2959 7.92448 45.3376 6.70703 46.083C6.6224 46.1351 6.5459 46.1611 6.47754 46.1611C6.40592 46.1611 6.34245 46.1383 6.28711 46.0928C5.9388 45.8031 5.63932 45.6191 5.38867 45.541C6.22852 45.0495 6.9528 44.5335 7.56152 43.9932C8.1084 43.5049 8.64062 42.9271 9.1582 42.2598C8.54297 41.8008 7.89355 41.4036 7.20996 41.0684C7.57454 40.6029 7.79427 40.3294 7.86914 40.248C7.90169 40.2155 7.93424 40.1992 7.9668 40.1992C7.99609 40.1992 8.03678 40.2122 8.08887 40.2383C8.63249 40.5117 9.21191 40.8633 9.82715 41.293ZM16.6484 39.5205C17.153 39.5596 17.7194 39.5791 18.3477 39.5791H20.3301C20.8216 39.5791 21.4206 39.5628 22.127 39.5303C22.2018 39.5303 22.2393 39.5872 22.2393 39.7012C22.249 39.8477 22.2539 39.9958 22.2539 40.1455C22.2539 40.292 22.249 40.4401 22.2393 40.5898C22.2295 40.7168 22.1855 40.7803 22.1074 40.7803C21.6322 40.7607 21.0495 40.751 20.3594 40.751H18.377C17.9831 40.751 17.4736 40.764 16.8486 40.79C16.764 40.79 16.7168 40.7201 16.707 40.5801C16.668 40.3327 16.6484 39.9795 16.6484 39.5205ZM15.418 43.7588C15.9941 43.7979 16.6842 43.8174 17.4883 43.8174H21.126C21.8551 43.8174 22.6055 43.8011 23.377 43.7686C23.4844 43.7686 23.5381 43.8288 23.5381 43.9492C23.5479 44.0924 23.5527 44.2373 23.5527 44.3838C23.5527 44.5303 23.5479 44.6751 23.5381 44.8184C23.5381 44.9583 23.4876 45.0283 23.3867 45.0283C22.9115 45.0088 22.1823 44.999 21.1992 44.999H17.459C16.6615 44.999 16.0609 45.0153 15.6572 45.0479C15.5758 45.0479 15.5254 44.9844 15.5059 44.8574C15.4798 44.7012 15.4505 44.335 15.418 43.7588ZM30.9893 44.7109H31.4629L32.6787 44.7012C32.7048 44.7012 32.7227 44.7012 32.7324 44.7012C32.8366 44.7012 32.8919 44.7614 32.8984 44.8818C32.9049 44.9827 32.9082 45.0885 32.9082 45.1992C32.9082 45.3066 32.9049 45.4108 32.8984 45.5117C32.8952 45.6029 32.8822 45.6598 32.8594 45.6826C32.8398 45.7021 32.791 45.7119 32.7129 45.7119L31.3213 45.7021H27.6396C27.1058 45.7021 26.6761 45.7087 26.3506 45.7217C26.2562 45.7217 26.1992 45.6549 26.1797 45.5215C26.1471 45.3457 26.1309 45.0658 26.1309 44.6816C26.5117 44.7077 26.9919 44.7207 27.5713 44.7207H29.8906L30.2324 42.2939H28.6211C28.4062 42.2939 28.04 42.3053 27.5225 42.3281C27.5094 42.3281 27.4964 42.3281 27.4834 42.3281C27.402 42.3281 27.3548 42.2646 27.3418 42.1377C27.319 41.9912 27.2946 41.7031 27.2686 41.2734C28.014 41.306 28.4779 41.3223 28.6602 41.3223H30.042C30.2959 41.3223 30.4928 41.293 30.6328 41.2344C30.6654 41.2051 30.7012 41.1904 30.7402 41.1904C30.7728 41.1904 30.8232 41.21 30.8916 41.249C31.1585 41.4443 31.362 41.6283 31.502 41.8008C31.5605 41.8626 31.5898 41.9229 31.5898 41.9814C31.5898 42.0433 31.5605 42.1035 31.502 42.1621C31.4043 42.2663 31.3376 42.4339 31.3018 42.665L30.9893 44.7109ZM35.5498 41.6104C36.0706 41.6917 36.79 41.7324 37.708 41.7324H40.9307C41.2464 41.7324 41.6533 41.7275 42.1514 41.7178C42.7861 41.708 43.1458 41.7015 43.2305 41.6982C43.2467 41.6982 43.263 41.6982 43.2793 41.6982C43.3672 41.6982 43.4111 41.7454 43.4111 41.8398C43.4209 41.9928 43.4258 42.1507 43.4258 42.3135C43.4258 42.473 43.4209 42.6292 43.4111 42.7822C43.4111 42.8831 43.3639 42.9336 43.2695 42.9336H43.2305C42.2311 42.9206 41.4873 42.9141 40.999 42.9141H37.4004L35.9307 43.0361C35.8037 43.0361 35.7272 42.9661 35.7012 42.8262C35.6426 42.5625 35.5921 42.1572 35.5498 41.6104Z" fill="black"/>
</svg>
