<svg width="50" height="50" viewBox="0 0 50 50" fill="none" xmlns="http://www.w3.org/2000/svg">
<rect x="0.5" y="0.5" width="49" height="48.9897" rx="9.5" fill="#FF0000" stroke="black"/>
<path d="M34.7578 39.9147L34.2656 43.4479C33.1172 43.6119 31.8457 43.694 30.4512 43.694C28.2715 43.694 26.6895 43.3424 25.7051 42.6393C24.8496 42.0416 24.1465 40.9987 23.5957 39.5104L22.8047 37.401C19.2773 37.1432 16.5469 35.6198 14.6133 32.8307C12.8789 30.3229 12.0117 27.0768 12.0117 23.0924C12.0117 18.2526 13.2656 14.5319 15.7734 11.9303C17.8828 9.72717 20.625 8.62561 24 8.62561C27.9023 8.62561 30.9258 10.0436 33.0703 12.8795C34.9922 15.4108 35.9531 18.7916 35.9531 23.0221C35.9531 27.0885 35.0625 30.3873 33.2812 32.9186C31.7695 35.0631 29.7656 36.4342 27.2695 37.0319L27.7441 38.403C28.0371 39.1412 28.459 39.6451 29.0098 39.9147C29.5137 40.1725 30.2578 40.3014 31.2422 40.3014C32.2969 40.3014 33.4688 40.1725 34.7578 39.9147ZM24 12.4049C21.7383 12.4049 20.0098 13.4069 18.8145 15.4108C17.7129 17.2506 17.1621 19.7994 17.1621 23.0573C17.1621 26.7604 17.8711 29.5553 19.2891 31.442C20.4727 33.0123 22.043 33.7975 24 33.7975C26.25 33.7975 27.9727 32.7721 29.168 30.7213C30.2578 28.858 30.8027 26.3033 30.8027 23.0573C30.8027 19.3307 30.0996 16.5475 28.6934 14.7076C27.5332 13.1725 25.9688 12.4049 24 12.4049Z" fill="white"/>
</svg>
